<svg xmlns="http://www.w3.org/2000/svg" viewBox="0 0 512 512" fill="#6b7280">
  <path d="M256 32c-88.4 0-160 71.6-160 160 0 76.3 53.8 140.2 125.4 156.2-3.8 32.5-13.4 64.6-27.6 90.3-2 3.6-.2 8.2 3.8 9.3 5.4 1.5 11 2.2 16.8 2.2 35.9 0 68.1-25.1 84.8-65.1 6.6 1.4 13.4 2.1 20.3 2.1 88.4 0 160-71.6 160-160S344.4 32 256 32zm0 288c-5.2 0-10.3-.4-15.4-1.1-5.3-15.9-8.1-33.2-8.1-51.4 0-18.2 2.8-35.5 8.1-51.4 5.1-.7 10.2-1.1 15.4-1.1s10.3.4 15.4 1.1c5.3 15.9 8.1 33.2 8.1 51.4 0 18.2-2.8 35.5-8.1 51.4-5.1.7-10.2 1.1-15.4 1.1zm-56-52.5c0 12.5 1.3 24.5 3.8 35.8-43.1-14.5-74.3-55.3-74.3-103.3 0-60.5 49.5-110 110-110 54.9 0 100.3 40.1 108.6 92.5-15.4-7.8-33.7-12.5-53.6-12.5-53 0-94.5 44-94.5 97.5zm56-97.5c5.2 0 10.3.4 15.4 1.1 5.3 15.9 8.1 33.2 8.1 51.4 0 18.2-2.8 35.5-8.1 51.4-5.1.7-10.2 1.1-15.4 1.1-53 0-94.5-44-94.5-97.5s41.5-97.5 94.5-97.5z"/>
  <path d="M256 352c-5.2 0-10.3-.4-15.4-1.1-5.3-15.9-8.1-33.2-8.1-51.4 0-18.2 2.8-35.5 8.1-51.4 5.1-.7 10.2-1.1 15.4-1.1s10.3.4 15.4 1.1c5.3 15.9 8.1 33.2 8.1 51.4 0 18.2-2.8 35.5-8.1 51.4-5.1.7-10.2 1.1-15.4 1.1z"/>
</svg>