<svg xmlns="http://www.w3.org/2000/svg" viewBox="0 0 512 512" fill="#6b7280">
  <path d="M160 256c0-53 43-96 96-96s96 43 96 96-43 96-96 96-96-43-96-96zm64 0c0 17.7 14.3 32 32 32s32-14.3 32-32-14.3-32-32-32-32 14.3-32 32z"/>
  <path d="M256 128c-70.7 0-128 57.3-128 128s57.3 128 128 128 128-57.3 128-128S326.7 128 256 128zm0 224c-53 0-96-43-96-96s43-96 96-96 96 43 96 96-43 96-96 96z"/>
  <path d="M256 64c-106 0-192 86-192 192s86 192 192 192 192-86 192-192S362 64 256 64zm0 352c-88.4 0-160-71.6-160-160S167.6 96 256 96s160 71.6 160 160-71.6 160-160 160z"/>
</svg>