<svg xmlns="http://www.w3.org/2000/svg" viewBox="0 0 512 512" fill="#6b7280">
  <path d="M176 216c0-13.3 10.7-24 24-24h112c13.3 0 24 10.7 24 24v24H176v-24zm-32 48h224v192c0 17.7-14.3 32-32 32H176c-17.7 0-32-14.3-32-32V264zm112-176c-8.8 0-16-7.2-16-16V48c0-8.8 7.2-16 16-16s16 7.2 16 16v24c0 8.8-7.2 16-16 16zm80 0c-8.8 0-16-7.2-16-16V48c0-8.8 7.2-16 16-16s16 7.2 16 16v24c0 8.8-7.2 16-16 16zm-160 0c-8.8 0-16-7.2-16-16V48c0-8.8 7.2-16 16-16s16 7.2 16 16v24c0 8.8-7.2 16-16 16z"/>
  <path d="M256 352c-17.7 0-32-14.3-32-32s14.3-32 32-32 32 14.3 32 32-14.3 32-32 32zm0-96c-35.3 0-64 28.7-64 64s28.7 64 64 64 64-28.7 64-64-28.7-64-64-64z"/>
</svg>