<svg xmlns="http://www.w3.org/2000/svg" viewBox="0 0 512 512" fill="none">
  <rect width="512" height="512" rx="64" fill="#F3F4F6"/>
  <g transform="translate(96, 96)">
    <path d="M160 32C160 14.33 174.3 0 192 0C209.7 0 224 14.33 224 32C224 49.67 209.7 64 192 64V96H224C277 96 320 138.1 320 192C320 245 277 288 224 288H96C42.98 288 0 245 0 192C0 138.1 42.98 96 96 96H128V64C110.3 64 96 49.67 96 32C96 14.33 110.3 0 128 0C145.7 0 160 14.33 160 32zM192 192C209.7 192 224 177.7 224 160C224 142.3 209.7 128 192 128H160V160C160 177.7 174.3 192 192 192zM96 160C96 177.7 110.3 192 128 192C145.7 192 160 177.7 160 160V128H128C110.3 128 96 142.3 96 160z" fill="#4F46E5"/>
  </g>
</svg>