<svg xmlns="http://www.w3.org/2000/svg" viewBox="0 0 512 512" fill="#6b7280">
  <path d="M368 96c-44.2 0-80 35.8-80 80v16h160v-16c0-44.2-35.8-80-80-80zm-44.4 128L288 448h160l-35.6-224H323.6zM368 64c61.9 0 112 50.1 112 112v16c17.7 0 32 14.3 32 32v192c0 17.7-14.3 32-32 32H256c-17.7 0-32-14.3-32-32V224c0-17.7 14.3-32 32-32v-16c0-61.9 50.1-112 112-112z"/>
  <path d="M144 96c-44.2 0-80 35.8-80 80v16h160v-16c0-44.2-35.8-80-80-80zm-44.4 128L64 448h160l-35.6-224H99.6zM144 64c61.9 0 112 50.1 112 112v16c17.7 0 32 14.3 32 32v192c0 17.7-14.3 32-32 32H32c-17.7 0-32-14.3-32-32V224c0-17.7 14.3-32 32-32v-16c0-61.9 50.1-112 112-112z"/>
</svg>