<svg xmlns="http://www.w3.org/2000/svg" viewBox="0 0 512 512" fill="none">
  <rect width="512" height="512" rx="64" fill="#F3F4F6"/>
  <g transform="translate(96, 96)">
    <path d="M108.1 149.1L0 300.9V464C0 472.8 7.164 480 16 480H112C120.8 480 128 472.8 128 464V400C128 391.2 135.2 384 144 384H176C184.8 384 192 391.2 192 400V464C192 472.8 199.2 480 208 480H304C312.8 480 320 472.8 320 464V300.9L211.9 149.1C202.3 134.9 181.8 134.9 172.1 149.1L160 168.1V128C160 116.1 149.9 106 138 106H102C90.12 106 80 116.1 80 128V168.1L67.88 149.1C58.35 134.9 37.72 134.9 28.19 149.1H28.19zM64 224H96V384H64V224zM224 224H256V384H224V224z" fill="#EC4899"/>
  </g>
</svg>