<svg xmlns="http://www.w3.org/2000/svg" viewBox="0 0 512 512" fill="#4CAF50">
  <path d="M256 32C132.3 32 32 132.3 32 256s100.3 224 224 224 224-100.3 224-224S379.7 32 256 32zm0 416c-106 0-192-86-192-192S150 64 256 64s192 86 192 192-86 192-192 192z"/>
  <path d="M352 176c0-61.9-50.1-112-112-112s-112 50.1-112 112c0 45.1 26.8 84.3 65.3 102.3-6.2 17.1-13.9 28.5-26.9 40.4-5.1 4.7-5.4 12.7-.7 17.8 2.5 2.7 5.9 4 9.3 4 3 0 6.1-1.1 8.5-3.3 17.1-15.6 28.6-32.3 36.3-54.7 6.5 1 13.2 1.5 20.1 1.5 61.9 0 112-50.1 112-112zm-112 80c-44.1 0-80-35.9-80-80s35.9-80 80-80 80 35.9 80 80-35.9 80-80 80z"/>
  <path d="M256 192c-8.8 0-16 7.2-16 16s7.2 16 16 16 16-7.2 16-16-7.2-16-16-16z"/>
  <path d="M304 192c-8.8 0-16 7.2-16 16s7.2 16 16 16 16-7.2 16-16-7.2-16-16-16z"/>
  <path d="M208 192c-8.8 0-16 7.2-16 16s7.2 16 16 16 16-7.2 16-16-7.2-16-16-16z"/>
</svg>