<svg xmlns="http://www.w3.org/2000/svg" viewBox="0 0 512 512" fill="#8B4513">
  <path d="M464 224h-16v-64c0-17.67-14.33-32-32-32h-96v-64c0-17.67-14.33-32-32-32H96c-17.67 0-32 14.33-32 32v256c0 8.84 7.16 16 16 16h16c8.84 0 16-7.16 16-16v-16h256v16c0 8.84 7.16 16 16 16h16c8.84 0 16-7.16 16-16v-32h32c17.67 0 32-14.33 32-32v-64C480 238.3 473.7 224 464 224zM128 64h160v64H128V64zM352 320H96v-96h256V320zM416 320h-32v-96h32V320z"/>
  <path d="M80 128h288c8.84 0 16 7.16 16 16v32c0 8.84-7.16 16-16 16H80c-8.84 0-16-7.16-16-16v-32C64 135.2 71.16 128 80 128z"/>
</svg>