<svg xmlns="http://www.w3.org/2000/svg" width="400" height="300" viewBox="0 0 400 300">
  <defs>
    <linearGradient id="home-bg" x1="0%" y1="0%" x2="100%" y2="100%">
      <stop offset="0%" stop-color="#0BA360" />
      <stop offset="100%" stop-color="#3CBA92" />
    </linearGradient>
    <filter id="shadow" x="-20%" y="-20%" width="140%" height="140%">
      <feDropShadow dx="2" dy="2" stdDeviation="3" flood-color="#000" flood-opacity="0.3" />
    </filter>
  </defs>
  
  <rect width="400" height="300" rx="15" fill="url(#home-bg)" opacity="0.1" />
  
  <g transform="translate(200, 150)">
    <!-- Modern House -->
    <g filter="url(#shadow)">
      <!-- House Structure -->
      <path d="M -90 0 L 0 -80 L 90 0 Z" fill="#10B981" />
      <rect x="-70" y="0" width="140" height="80" fill="#10B981" />
      
      <!-- Windows -->
      <rect x="-55" y="20" width="30" height="30" rx="2" fill="#ECFDF5" />
      <rect x="-52" y="23" width="24" height="24" rx="1" fill="#D1FAE5" />
      <path d="M -52 35 L -28 35" stroke="#10B981" stroke-width="1" />
      <path d="M -40 23 L -40 47" stroke="#10B981" stroke-width="1" />
      
      <rect x="25" y="20" width="30" height="30" rx="2" fill="#ECFDF5" />
      <rect x="28" y="23" width="24" height="24" rx="1" fill="#D1FAE5" />
      <path d="M 28 35 L 52 35" stroke="#10B981" stroke-width="1" />
      <path d="M 40 23 L 40 47" stroke="#10B981" stroke-width="1" />
      
      <!-- Door -->
      <rect x="-15" y="30" width="30" height="50" rx="3" fill="#065F46" />
      <rect x="-10" y="35" width="20" height="40" rx="2" fill="#059669" />
      <circle cx="10" cy="55" r="3" fill="#ECFDF5" />
      
      <!-- Chimney -->
      <rect x="50" y="-50" width="15" height="30" fill="#065F46" />
      <path d="M 50 -50 L 65 -50 L 65 -55 L 55 -55 L 50 -50 Z" fill="#065F46" />
      <path d="M 55 -55 C 55 -60 60 -60 60 -55" stroke="#A7F3D0" stroke-width="2" fill="none" />
    </g>
    
    <!-- Garden Elements -->
    <g transform="translate(-100, 50)" filter="url(#shadow)">
      <!-- Flower Pot -->
      <path d="M -15 -10 L -20 30 L 20 30 L 15 -10 Z" fill="#B45309" />
      <path d="M -15 -10 L 15 -10" stroke="#92400E" stroke-width="2" />
      
      <!-- Plant -->
      <path d="M 0 -10 L 0 -30" stroke="#065F46" stroke-width="2" />
      <path d="M 0 -30 C -20 -40 -15 -60 0 -50 C 15 -60 20 -40 0 -30" fill="#059669" />
      <path d="M -5 -20 C -15 -25 -10 -40 0 -30" fill="#10B981" />
      <path d="M 5 -20 C 15 -25 10 -40 0 -30" fill="#10B981" />
    </g>
    
    <g transform="translate(100, 50)" filter="url(#shadow)">
      <!-- Watering Can -->
      <path d="M -20 0 C -25 -5 -25 -15 -15 -20 L 5 -20 L 15 -10 L 15 10 C 15 15 10 20 0 20 C -10 20 -20 15 -20 0 Z" 
            fill="#6EE7B7" />
      <path d="M 15 0 L 25 -5 L 25 5 L 15 10" fill="#6EE7B7" />
      <path d="M -15 -20 L -25 -40" stroke="#6EE7B7" stroke-width="3" />
      <path d="M -25 -40 C -30 -45 -20 -50 -15 -45 C -10 -50 0 -45 -5 -40" fill="#6EE7B7" />
      <circle cx="-5" cy="0" r="3" fill="#A7F3D0" />
    </g>
    
    <!-- Decorative Elements -->
    <g opacity="0.5">
      <circle cx="-70" cy="-60" r="5" fill="#A7F3D0" />
      <circle cx="70" cy="-60" r="5" fill="#A7F3D0" />
      <circle cx="-80" cy="70" r="4" fill="#A7F3D0" />
      <circle cx="80" cy="70" r="4" fill="#A7F3D0" />
    </g>
  </g>
</svg>