<svg xmlns="http://www.w3.org/2000/svg" width="400" height="300" viewBox="0 0 400 300">
  <defs>
    <linearGradient id="fashion-bg" x1="0%" y1="0%" x2="100%" y2="100%">
      <stop offset="0%" stop-color="#FF9A8B" />
      <stop offset="50%" stop-color="#FF6A88" />
      <stop offset="100%" stop-color="#FF99AC" />
    </linearGradient>
    <filter id="shadow" x="-20%" y="-20%" width="140%" height="140%">
      <feDropShadow dx="2" dy="2" stdDeviation="3" flood-color="#000" flood-opacity="0.3" />
    </filter>
  </defs>
  
  <rect width="400" height="300" rx="15" fill="url(#fashion-bg)" opacity="0.1" />
  
  <g transform="translate(200, 150)">
    <!-- Modern Dress on Hanger -->
    <g transform="translate(0, 0)" filter="url(#shadow)">
      <!-- Hanger -->
      <path d="M 0 -80 L 0 -60" stroke="#6B7280" stroke-width="3" />
      <path d="M -100 -60 L 0 -60 L 100 -60" stroke="#6B7280" stroke-width="3" fill="none" />
      
      <!-- Dress -->
      <path d="M -50 -60 L -70 -30 L -60 -10 C -60 20 -40 50 0 50 C 40 50 60 20 60 -10 L 70 -30 L 50 -60" 
            fill="#EC4899" />
      <path d="M -50 -60 L 50 -60" stroke="#BE185D" stroke-width="2" fill="none" />
      
      <!-- Dress Details -->
      <path d="M -30 -60 L -30 50" stroke="#F9A8D4" stroke-width="1" stroke-dasharray="2,2" />
      <path d="M 30 -60 L 30 50" stroke="#F9A8D4" stroke-width="1" stroke-dasharray="2,2" />
      <path d="M -60 -10 L 60 -10" stroke="#F9A8D4" stroke-width="2" />
      
      <!-- Belt -->
      <path d="M -40 10 L 40 10" stroke="#BE185D" stroke-width="4" />
      <circle cx="0" cy="10" r="5" fill="#F9A8D4" stroke="#BE185D" stroke-width="1" />
    </g>
    
    <!-- Accessories -->
    <g transform="translate(-80, 20)" filter="url(#shadow)">
      <!-- Handbag -->
      <path d="M -20 -20 C -25 -25 -25 -40 -15 -40 L 15 -40 C 25 -40 25 -25 20 -20 L 15 20 L -15 20 Z" 
            fill="#BE185D" />
      <path d="M -10 -40 L -10 -55 C -10 -60 10 -60 10 -55 L 10 -40" 
            stroke="#BE185D" stroke-width="3" fill="none" />
      <rect x="-12" y="-15" width="24" height="5" rx="2" fill="#F9A8D4" />
    </g>
    
    <g transform="translate(80, 20)" filter="url(#shadow)">
      <!-- Shoe -->
      <path d="M -25 0 C -20 -10 -10 -15 0 -15 C 15 -15 20 -5 25 0 C 25 5 20 10 0 10 C -15 10 -25 5 -25 0 Z" 
            fill="#BE185D" />
      <path d="M -15 0 C -15 -5 -5 -8 0 -8 C 10 -8 15 -5 15 0" 
            stroke="#F9A8D4" stroke-width="1" fill="none" />
      <path d="M 0 10 L 0 15 L 15 15 L 20 10" stroke="#BE185D" stroke-width="2" fill="none" />
      <path d="M -5 -15 L -10 -25" stroke="#BE185D" stroke-width="2" />
    </g>
    
    <!-- Decorative Elements -->
    <g opacity="0.6">
      <circle cx="-60" cy="-80" r="5" fill="#F9A8D4" />
      <circle cx="60" cy="-80" r="5" fill="#F9A8D4" />
      <circle cx="-90" cy="-40" r="4" fill="#F9A8D4" />
      <circle cx="90" cy="-40" r="4" fill="#F9A8D4" />
      <circle cx="-80" cy="60" r="6" fill="#F9A8D4" />
      <circle cx="80" cy="60" r="6" fill="#F9A8D4" />
    </g>
  </g>
</svg>