<svg xmlns="http://www.w3.org/2000/svg" width="400" height="300" viewBox="0 0 400 300">
  <defs>
    <linearGradient id="beauty-bg" x1="0%" y1="0%" x2="100%" y2="100%">
      <stop offset="0%" stop-color="#F472B6" />
      <stop offset="50%" stop-color="#EC4899" />
      <stop offset="100%" stop-color="#DB2777" />
    </linearGradient>
    <filter id="shadow" x="-20%" y="-20%" width="140%" height="140%">
      <feDropShadow dx="2" dy="2" stdDeviation="3" flood-color="#000" flood-opacity="0.3" />
    </filter>
  </defs>
  
  <rect width="400" height="300" rx="15" fill="url(#beauty-bg)" opacity="0.1" />
  
  <g transform="translate(200, 150)">
    <!-- Cosmetic Products Group -->
    <g transform="translate(-70, -20)" filter="url(#shadow)">
      <!-- Perfume Bottle -->
      <rect x="-25" y="-40" width="50" height="80" rx="5" fill="#FDF2F8" />
      <rect x="-20" y="-35" width="40" height="70" rx="3" fill="#FBCFE8" />
      <rect x="-15" y="-50" width="30" height="15" rx="3" fill="#FDF2F8" />
      <rect x="-10" y="-55" width="20" height="5" rx="2" fill="#FDF2F8" />
      <circle cx="0" cy="-40" r="5" fill="#F472B6" />
    </g>
    
    <g transform="translate(0, 0)" filter="url(#shadow)">
      <!-- Makeup Palette -->
      <rect x="-30" y="-25" width="60" height="50" rx="5" fill="#9D174D" />
      <rect x="-25" y="-20" width="50" height="40" rx="3" fill="#831843" />
      
      <!-- Eyeshadow Colors -->
      <circle cx="-15" cy="-10" r="7" fill="#F472B6" />
      <circle cx="5" cy="-10" r="7" fill="#EC4899" />
      <circle cx="-15" cy="10" r="7" fill="#BE185D" />
      <circle cx="5" cy="10" r="7" fill="#DB2777" />
      
      <!-- Brush -->
      <rect x="25" y="-20" width="5" height="40" fill="#831843" />
      <path d="M 25 -20 C 25 -30 30 -30 30 -20" fill="#F472B6" />
    </g>
    
    <g transform="translate(70, -20)" filter="url(#shadow)">
      <!-- Health Products -->
      <!-- Vitamin Bottle -->
      <rect x="-20" y="-30" width="40" height="60" rx="5" fill="#FDF2F8" />
      <rect x="-15" y="-25" width="30" height="50" rx="3" fill="#FBCFE8" />
      <rect x="-15" y="-35" width="30" height="10" rx="3" fill="#FDF2F8" />
      
      <!-- Pills -->
      <circle cx="-5" cy="-10" r="5" fill="#F472B6" />
      <circle cx="5" cy="0" r="5" fill="#EC4899" />
      <circle cx="-5" cy="10" r="5" fill="#DB2777" />
    </g>
    
    <!-- Heart Symbol -->
    <g transform="translate(0, 60)" filter="url(#shadow)">
      <path d="M 0 20 C -30 -10 -60 20 -30 40 C 0 60 0 50 0 40 C 0 50 0 60 30 40 C 60 20 30 -10 0 20 Z" 
            fill="#F472B6" />
      <path d="M 0 20 C -30 -10 -60 20 -30 40 C 0 60 0 50 0 40 C 0 50 0 60 30 40 C 60 20 30 -10 0 20 Z" 
            stroke="#DB2777" stroke-width="2" fill="none" />
    </g>
    
    <!-- Decorative Elements -->
    <g opacity="0.5">
      <circle cx="-80" cy="-80" r="5" fill="#FBCFE8" />
      <circle cx="80" cy="-80" r="5" fill="#FBCFE8" />
      <circle cx="-90" cy="0" r="4" fill="#FBCFE8" />
      <circle cx="90" cy="0" r="4" fill="#FBCFE8" />
      <circle cx="-80" cy="80" r="6" fill="#FBCFE8" />
      <circle cx="80" cy="80" r="6" fill="#FBCFE8" />
    </g>
  </g>
</svg>